<svg width="140" height="32" viewBox="0 0 140 32" fill="none" xmlns="http://www.w3.org/2000/svg">
<g clip-path="url(#clip0_74_675)">
<path d="M1.78228 5.63159L0.36853 6.32347V26.5735L1.78228 27.2822L18.0948 17.1572V15.7566L1.78228 5.63159ZM2.18103 25.0041V7.90972L8.82686 16.4653L2.18103 25.0041Z" fill="url(#paint0_linear_74_675)"/>
<path fill-rule="evenodd" clip-rule="evenodd" d="M9.36853 27.0598L25.2823 17.1828V15.7822C19.0676 11.925 15.5832 9.76246 9.36853 5.90527V7.93534L23.1435 16.491L9.36853 25.0297V27.0598Z" fill="url(#paint1_linear_74_675)"/>
</g>
<path d="M42.8909 17.697C42.8909 18.5593 42.7616 19.3354 42.5029 20.0252C42.2442 20.715 41.8778 21.3042 41.4035 21.7928C40.9436 22.2671 40.3904 22.6335 39.7437 22.8922C39.1113 23.1509 38.4071 23.2802 37.6311 23.2802C36.7688 23.2802 36.0287 23.1222 35.4107 22.806C34.7928 22.4755 34.3257 22.0802 34.0096 21.6204L33.8587 23H31.315V6.89711H34.0742V13.5797C34.4479 13.0623 34.9509 12.6671 35.5832 12.3941C36.2299 12.121 36.9197 11.9845 37.6526 11.9845C38.4143 11.9845 39.1113 12.1138 39.7437 12.3725C40.3904 12.6312 40.9436 13.0049 41.4035 13.4935C41.8634 13.9677 42.2227 14.5641 42.4814 15.2827C42.7544 15.9869 42.8909 16.7917 42.8909 17.697ZM40.067 17.6108C40.067 16.6623 39.794 15.9078 39.2478 15.3474C38.7017 14.7869 37.9904 14.5066 37.1137 14.5066C36.2371 14.5066 35.5257 14.7869 34.9796 15.3474C34.4335 15.9078 34.1605 16.6623 34.1605 17.6108C34.1605 18.5593 34.4335 19.3138 34.9796 19.8743C35.5257 20.4347 36.2371 20.715 37.1137 20.715C37.9904 20.715 38.7017 20.4347 39.2478 19.8743C39.794 19.3138 40.067 18.5593 40.067 17.6108ZM44.636 8.66476C44.636 8.19051 44.8013 7.79531 45.1318 7.47914C45.4624 7.1486 45.8648 6.98333 46.339 6.98333C46.8133 6.98333 47.2156 7.1486 47.5462 7.47914C47.8767 7.79531 48.042 8.19051 48.042 8.66476C48.042 9.15338 47.8767 9.56296 47.5462 9.8935C47.2156 10.2097 46.8133 10.3677 46.339 10.3677C45.8648 10.3677 45.4624 10.2097 45.1318 9.8935C44.8013 9.56296 44.636 9.15338 44.636 8.66476ZM47.7618 12.3079V23H44.9378V12.3079H47.7618ZM60.5409 16.4252V23H57.7385V17.0288C57.7385 16.0659 57.5157 15.412 57.0702 15.0671C56.6247 14.7222 56.1289 14.5498 55.5828 14.5498C54.9505 14.5498 54.3828 14.7438 53.8798 15.1318C53.3768 15.5198 53.1253 16.1737 53.1253 17.0935V23H50.323V12.3079H52.9744L53.0607 13.3641C53.3625 12.9474 53.7936 12.6168 54.3541 12.3725C54.9145 12.1138 55.5253 11.9845 56.1864 11.9845C57.5804 11.9845 58.6511 12.3725 59.3984 13.1486C60.16 13.9102 60.5409 15.0024 60.5409 16.4252ZM73.3648 25.0048C73.3648 26.2407 72.8043 27.1245 71.6833 27.6563C70.5624 28.2024 69.154 28.4826 67.4582 28.497C65.6618 28.497 64.3037 28.267 63.384 27.8072C62.4642 27.3616 62.0044 26.6646 62.0044 25.7162C62.0044 25.2275 62.1337 24.7892 62.3924 24.4012C62.6511 24.0132 63.0103 23.7186 63.4702 23.5174C62.7804 23.0575 62.4355 22.382 62.4355 21.491C62.4355 21.0599 62.5505 20.6216 62.7804 20.1761C63.0247 19.7162 63.4199 19.3785 63.966 19.1629C63.1612 18.3869 62.7588 17.424 62.7588 16.2743C62.7588 15.642 62.8738 15.0599 63.1038 14.5282C63.3481 13.9965 63.6858 13.5438 64.1169 13.1701C64.5481 12.7965 65.0654 12.509 65.669 12.3079C66.287 12.0923 66.9624 11.9845 67.6953 11.9845C68.6007 11.9845 69.4271 12.157 70.1744 12.5019C70.4187 12.0132 70.778 11.6252 71.2522 11.3378C71.7265 11.0504 72.2869 10.9067 72.9336 10.9067C73.1348 10.9067 73.2714 10.9138 73.3432 10.9282V13.1917C73.2857 13.1773 73.1564 13.1701 72.9552 13.1701C72.4091 13.1701 71.9708 13.321 71.6402 13.6228C72.2294 14.3414 72.5241 15.218 72.5241 16.2527C72.5241 16.8994 72.4091 17.4887 72.1791 18.0204C71.9492 18.5378 71.6187 18.9833 71.1875 19.3569C70.7708 19.7306 70.2606 20.018 69.657 20.2192C69.0678 20.4204 68.4139 20.521 67.6953 20.521C66.9768 20.521 66.3157 20.4132 65.7121 20.1976C65.4103 20.212 65.1732 20.291 65.0008 20.4347C64.8283 20.5641 64.7421 20.7581 64.7421 21.0168C64.7421 21.218 64.8283 21.3976 65.0008 21.5557C65.1732 21.6994 65.4534 21.7713 65.8415 21.7713H69.5492C70.7708 21.7713 71.7121 22.0515 72.3732 22.612C73.0342 23.1725 73.3648 23.9701 73.3648 25.0048ZM65.4966 16.2527C65.4966 16.8563 65.6906 17.3521 66.0786 17.7402C66.481 18.1138 67.0055 18.3006 67.6522 18.3006C68.2989 18.3006 68.8163 18.1066 69.2043 17.7186C69.5923 17.3306 69.7863 16.8563 69.7863 16.2959C69.7863 15.721 69.5852 15.2324 69.1828 14.83C68.7947 14.4132 68.2774 14.2048 67.6307 14.2048C66.984 14.2048 66.4666 14.3989 66.0786 14.7869C65.6906 15.1605 65.4966 15.6491 65.4966 16.2527ZM70.6271 25.0263C70.6271 24.6814 70.4834 24.4299 70.1959 24.2718C69.9085 24.1281 69.5349 24.0563 69.075 24.0563H65.4319H65.087C64.6415 24.2287 64.4187 24.5377 64.4187 24.9832C64.4187 25.4575 64.6702 25.7664 65.1732 25.9102C65.6906 26.0539 66.4954 26.1257 67.5876 26.1257C68.6223 26.1257 69.384 26.0539 69.8726 25.9102C70.3756 25.7664 70.6271 25.4718 70.6271 25.0263ZM85.0228 18.6455H76.9605C77.0468 19.3928 77.3414 19.9533 77.8444 20.327C78.3617 20.7006 78.9725 20.8874 79.6767 20.8874C80.8839 20.8874 81.7461 20.3773 82.2635 19.3569L84.5916 20.2838C84.2036 21.2323 83.5641 21.9725 82.6731 22.5042C81.7964 23.0216 80.7976 23.2802 79.6767 23.2802C78.8863 23.2802 78.1605 23.1437 77.4995 22.8707C76.8384 22.5976 76.2707 22.2168 75.7965 21.7282C75.3222 21.2395 74.9558 20.6503 74.6971 19.9605C74.4384 19.2563 74.3091 18.4875 74.3091 17.6539C74.3091 16.806 74.4384 16.0372 74.6971 15.3474C74.9558 14.6575 75.3222 14.0611 75.7965 13.5581C76.2707 13.0552 76.8384 12.6671 77.4995 12.3941C78.1749 12.121 78.915 11.9845 79.7198 11.9845C80.5102 11.9845 81.2288 12.121 81.8755 12.3941C82.5365 12.6528 83.097 13.0336 83.5569 13.5366C84.0168 14.0252 84.3761 14.6216 84.6347 15.3258C84.8934 16.0156 85.0228 16.7917 85.0228 17.6539V18.6455ZM82.1557 16.7054C82.0982 15.915 81.8539 15.3186 81.4228 14.9162C80.9916 14.5138 80.4096 14.3126 79.6767 14.3126C78.9438 14.3126 78.3474 14.521 77.8875 14.9378C77.4276 15.3402 77.133 15.9294 77.0036 16.7054H82.1557ZM97.1124 12.3079L92.6717 23H89.8909L85.6442 12.3079H88.6837L91.3567 19.6587L94.2022 12.3079H97.1124ZM108.243 18.6455H100.18C100.267 19.3928 100.561 19.9533 101.064 20.327C101.582 20.7006 102.192 20.8874 102.897 20.8874C104.104 20.8874 104.966 20.3773 105.483 19.3569L107.811 20.2838C107.423 21.2323 106.784 21.9725 105.893 22.5042C105.016 23.0216 104.017 23.2802 102.897 23.2802C102.106 23.2802 101.38 23.1437 100.719 22.8707C100.058 22.5976 99.4905 22.2168 99.0163 21.7282C98.542 21.2395 98.1756 20.6503 97.9169 19.9605C97.6582 19.2563 97.5289 18.4875 97.5289 17.6539C97.5289 16.806 97.6582 16.0372 97.9169 15.3474C98.1756 14.6575 98.542 14.0611 99.0163 13.5581C99.4905 13.0552 100.058 12.6671 100.719 12.3941C101.395 12.121 102.135 11.9845 102.94 11.9845C103.73 11.9845 104.449 12.121 105.095 12.3941C105.756 12.6528 106.317 13.0336 106.777 13.5366C107.237 14.0252 107.596 14.6216 107.855 15.3258C108.113 16.0156 108.243 16.7917 108.243 17.6539V18.6455ZM105.376 16.7054C105.318 15.915 105.074 15.3186 104.643 14.9162C104.211 14.5138 103.629 14.3126 102.897 14.3126C102.164 14.3126 101.567 14.521 101.107 14.9378C100.647 15.3402 100.353 15.9294 100.223 16.7054H105.376ZM115.841 12.157C116.229 12.157 116.646 12.2073 117.091 12.3079V14.8947C116.703 14.7941 116.301 14.7438 115.884 14.7438C114.979 14.7438 114.274 15.024 113.771 15.5845C113.283 16.145 113.038 16.9282 113.038 17.9342V23H110.193V12.3294H112.801L112.952 13.5581C113.182 13.0983 113.556 12.7534 114.073 12.5234C114.605 12.2791 115.194 12.157 115.841 12.157ZM122.345 21.0383C122.805 21.0383 123.171 20.9521 123.444 20.7797C123.732 20.5928 123.875 20.3198 123.875 19.9605C123.875 19.4431 123.531 19.0982 122.841 18.9258L121.418 18.5378C120.297 18.2503 119.499 17.8408 119.025 17.309C118.551 16.7773 118.314 16.1378 118.314 15.3905C118.314 14.3989 118.673 13.5869 119.392 12.9546C120.11 12.3079 121.102 11.9845 122.366 11.9845C123.444 11.9845 124.357 12.2288 125.104 12.7174C125.851 13.206 126.304 13.9031 126.462 14.8084L123.94 15.3905C123.897 15.0312 123.739 14.751 123.466 14.5498C123.193 14.3486 122.855 14.248 122.453 14.248C122.036 14.248 121.698 14.3486 121.44 14.5498C121.195 14.7366 121.073 15.0024 121.073 15.3474C121.073 15.606 121.166 15.8216 121.353 15.9941C121.54 16.1665 121.849 16.3102 122.28 16.4252L123.681 16.7917C125.693 17.3234 126.699 18.3797 126.699 19.9605C126.699 20.9665 126.319 21.7713 125.557 22.3749C124.795 22.9784 123.739 23.2802 122.388 23.2802C121.08 23.2802 120.053 23.0072 119.305 22.4611C118.572 21.9006 118.141 21.1605 118.012 20.2407L120.599 19.8096C120.628 20.1833 120.793 20.485 121.095 20.715C121.411 20.9306 121.828 21.0383 122.345 21.0383ZM138.83 18.6455H130.768C130.854 19.3928 131.149 19.9533 131.652 20.327C132.169 20.7006 132.78 20.8874 133.484 20.8874C134.692 20.8874 135.554 20.3773 136.071 19.3569L138.399 20.2838C138.011 21.2323 137.372 21.9725 136.481 22.5042C135.604 23.0216 134.605 23.2802 133.484 23.2802C132.694 23.2802 131.968 23.1437 131.307 22.8707C130.646 22.5976 130.078 22.2168 129.604 21.7282C129.13 21.2395 128.763 20.6503 128.505 19.9605C128.246 19.2563 128.117 18.4875 128.117 17.6539C128.117 16.806 128.246 16.0372 128.505 15.3474C128.763 14.6575 129.13 14.0611 129.604 13.5581C130.078 13.0552 130.646 12.6671 131.307 12.3941C131.983 12.121 132.723 11.9845 133.527 11.9845C134.318 11.9845 135.036 12.121 135.683 12.3941C136.344 12.6528 136.905 13.0336 137.365 13.5366C137.824 14.0252 138.184 14.6216 138.442 15.3258C138.701 16.0156 138.83 16.7917 138.83 17.6539V18.6455ZM135.963 16.7054C135.906 15.915 135.662 15.3186 135.23 14.9162C134.799 14.5138 134.217 14.3126 133.484 14.3126C132.751 14.3126 132.155 14.521 131.695 14.9378C131.235 15.3402 130.941 15.9294 130.811 16.7054H135.963Z" fill="url(#paint2_linear_74_675)"/>
<defs>
<linearGradient id="paint0_linear_74_675" x1="-4.13147" y1="16.2822" x2="20.8674" y2="16.1154" gradientUnits="userSpaceOnUse">
<stop stop-color="#DA0B0B"/>
<stop offset="1" stop-color="#FF4646"/>
</linearGradient>
<linearGradient id="paint1_linear_74_675" x1="31.7899" y1="4.48625" x2="31.7899" y2="24.5985" gradientUnits="userSpaceOnUse">
<stop stop-color="white"/>
<stop offset="0.9375" stop-color="white"/>
<stop offset="0.9376" stop-color="white"/>
</linearGradient>
<linearGradient id="paint2_linear_74_675" x1="113" y1="23" x2="106.901" y2="120.525" gradientUnits="userSpaceOnUse">
<stop stop-color="white"/>
<stop offset="0.672532"/>
<stop offset="0.938232"/>
</linearGradient>
<clipPath id="clip0_74_675">
<rect width="29" height="27" fill="white" transform="translate(27) rotate(90)"/>
</clipPath>
</defs>
</svg>
