<svg width="26" height="16" viewBox="0 0 26 16" fill="none" xmlns="http://www.w3.org/2000/svg">
<path d="M25.1875 0.687455C25.403 0.687455 25.6097 0.773058 25.762 0.925431C25.9144 1.0778 26 1.28447 26 1.49995V14.5C26 14.7154 25.9144 14.9221 25.762 15.0745C25.6097 15.2269 25.403 15.3125 25.1875 15.3125C24.972 15.3125 24.7653 15.2269 24.613 15.0745C24.4606 14.9221 24.375 14.7154 24.375 14.5V9.22358L14.1911 15.1321C13.3136 15.6407 12.1875 15.0248 12.1875 13.9995V9.22196L2.00363 15.1305C1.12612 15.6423 0 15.0265 0 14.0011V2.00046C0 0.976705 1.12612 0.359205 2.00363 0.869455L12.1875 6.77796V2.00046C12.1875 0.976705 13.3136 0.359205 14.1911 0.869455L24.375 6.77796V1.49995C24.375 1.28447 24.4606 1.0778 24.613 0.925431C24.7653 0.773058 24.972 0.687455 25.1875 0.687455Z" fill="white"/>
</svg>
