<svg width="18" height="18" viewBox="0 0 18 18" fill="none" xmlns="http://www.w3.org/2000/svg">
<rect width="18" height="18" rx="2" fill="#262626"/>
<path d="M3.78943 11.6667V6.33333C3.78943 5.97971 3.92667 5.64057 4.17096 5.39052C4.41525 5.14048 4.74658 5 5.09206 5H12.9079C13.2533 5 13.5847 5.14048 13.8289 5.39052C14.0732 5.64057 14.2105 5.97971 14.2105 6.33333V11.6667C14.2105 12.0203 14.0732 12.3594 13.8289 12.6095C13.5847 12.8595 13.2533 13 12.9079 13H5.09206C4.74658 13 4.41525 12.8595 4.17096 12.6095C3.92667 12.3594 3.78943 12.0203 3.78943 11.6667ZM8.21186 7.062C8.16317 7.02651 8.10587 7.00543 8.04625 7.00106C7.98662 6.99669 7.92697 7.0092 7.87384 7.03722C7.8207 7.06524 7.77612 7.10769 7.74498 7.15992C7.71385 7.21215 7.69736 7.27215 7.69732 7.33333V10.6667C7.69736 10.7279 7.71385 10.7878 7.74498 10.8401C7.77612 10.8923 7.8207 10.9348 7.87384 10.9628C7.92697 10.9908 7.98662 11.0033 8.04625 10.9989C8.10587 10.9946 8.16317 10.9735 8.21186 10.938L10.4915 9.27133C10.5337 9.2405 10.5681 9.19979 10.5918 9.1526C10.6156 9.1054 10.628 9.05308 10.628 9C10.628 8.94692 10.6156 8.8946 10.5918 8.8474C10.5681 8.80021 10.5337 8.7595 10.4915 8.72867L8.21186 7.062Z" fill="#787878"/>
</svg>
