<svg width="21" height="21" viewBox="0 0 21 21" fill="none" xmlns="http://www.w3.org/2000/svg">
<g clip-path="url(#clip0_29_17)">
<path d="M19.2605 12.9254C18.9765 12.5619 17.3824 12.7529 16.6665 12.8383C16.4493 12.8645 16.4163 12.6752 16.6116 12.5374C17.8828 11.6448 19.9655 11.9035 20.208 12.2018C20.4515 12.5036 20.1438 14.5913 18.9529 15.5887C18.7695 15.7409 18.5953 15.6597 18.6765 15.4577C18.9444 14.7883 19.5445 13.2888 19.2597 12.9254H19.2605ZM18.3358 13.9802C16.1154 15.62 12.895 16.4906 10.1227 16.4906C6.23711 16.4906 2.73782 15.0537 0.0896923 12.6633C-0.118236 12.4757 0.0677161 12.2196 0.317907 12.365C3.17481 14.0276 6.70706 15.0283 10.356 15.0283C12.9869 15.0154 15.5893 14.4829 18.0138 13.4612C18.3891 13.3023 18.7035 13.7089 18.3358 13.9802ZM18.7433 9.72191C18.1 9.72191 17.6056 9.54526 17.2599 9.1928C16.9142 8.83949 16.7417 8.33319 16.7417 7.6739C16.7417 6.99856 16.9184 6.46944 17.2717 6.08486C17.625 5.70112 18.1152 5.5084 18.7433 5.5084C19.2267 5.5084 19.6045 5.62505 19.8767 5.85918C20.1497 6.09246 20.2858 6.40435 20.2858 6.79316C20.2858 7.18282 20.1387 7.47781 19.8463 7.67728C19.5521 7.87761 19.1194 7.97734 18.5488 7.97734C18.253 7.97734 17.9961 7.94861 17.778 7.89197C17.8093 8.23937 17.9141 8.48871 18.0933 8.63916C18.2725 8.78962 18.5438 8.86569 18.9072 8.86569C19.0526 8.86569 19.1946 8.85639 19.3315 8.8378C19.5405 8.80608 19.7474 8.76177 19.9511 8.70509C19.964 8.70298 19.9769 8.70185 19.99 8.70171C20.0779 8.70171 20.1218 8.76088 20.1218 8.8809V9.23928C20.1218 9.32212 20.1108 9.38044 20.088 9.41425C20.052 9.45671 20.0044 9.48783 19.9511 9.50384C19.5654 9.65047 19.1559 9.72441 18.7433 9.72191V9.72191ZM18.4863 7.27664C18.7517 7.27664 18.9436 7.23607 19.0628 7.15577C19.1828 7.07547 19.2419 6.95207 19.2419 6.78556C19.2419 6.45845 19.0475 6.29532 18.6587 6.29532C18.16 6.29532 17.8718 6.6013 17.7932 7.21409C18.0011 7.25636 18.2327 7.27664 18.4863 7.27664V7.27664ZM10.1692 9.60527C10.1015 9.60527 10.0517 9.59006 10.0204 9.55878C9.98997 9.52751 9.97391 9.47764 9.97391 9.41087V5.8203C9.97391 5.74761 9.98997 5.69689 10.0204 5.66815C10.0517 5.63941 10.1015 5.62589 10.1692 5.62589H10.7295C10.8487 5.62589 10.9214 5.68252 10.9476 5.79663L11.0102 6.00709C11.2849 5.82537 11.5334 5.69689 11.754 5.62166C11.9737 5.54559 12.202 5.5084 12.4352 5.5084C12.9027 5.5084 13.2323 5.67491 13.4242 6.00709C13.6556 5.8473 13.9071 5.71883 14.1722 5.62505C14.4055 5.54728 14.6472 5.5084 14.8966 5.5084C15.26 5.5084 15.5415 5.60983 15.7418 5.81269C15.9413 6.0147 16.041 6.29786 16.041 6.66131V9.41087C16.041 9.47849 16.0267 9.52751 15.9988 9.55878C15.97 9.59006 15.9193 9.60527 15.8466 9.60527H15.0986C15.031 9.60527 14.9819 9.59006 14.9507 9.55878C14.9194 9.52751 14.9042 9.47764 14.9042 9.41087V6.91065C14.9042 6.55734 14.7453 6.38069 14.4292 6.38069C14.1485 6.38069 13.8654 6.44831 13.5797 6.58355V9.41087C13.5797 9.47849 13.5653 9.52751 13.5374 9.55878C13.5087 9.59006 13.458 9.60527 13.3853 9.60527H12.6381C12.5705 9.60527 12.5206 9.59006 12.4893 9.55878C12.4589 9.52751 12.4428 9.47764 12.4428 9.41087V6.91065C12.4428 6.55734 12.2848 6.38069 11.9678 6.38069C11.6771 6.38069 11.3914 6.45084 11.1116 6.59115V9.41087C11.1116 9.47849 11.0972 9.52751 11.0685 9.55878C11.0398 9.59006 10.989 9.60527 10.9163 9.60527H10.1692ZM8.44149 5.00971C8.2437 5.00971 8.08649 4.95562 7.96647 4.84658C7.84644 4.73755 7.78728 4.58963 7.78728 4.40283C7.78728 4.21603 7.84644 4.06727 7.96647 3.95824C8.08564 3.8492 8.2437 3.7951 8.44149 3.7951C8.63843 3.7951 8.79649 3.8492 8.91651 3.95824C8.9768 4.01494 9.02405 4.08407 9.05499 4.16083C9.08592 4.2376 9.09982 4.32017 9.0957 4.40283C9.0957 4.58878 9.03654 4.73755 8.91651 4.84658C8.79733 4.95562 8.63843 5.00971 8.44149 5.00971ZM8.06705 9.60527C7.99943 9.60527 7.95041 9.58921 7.91913 9.55878C7.88786 9.52751 7.87264 9.47764 7.87264 9.41002V5.8203C7.87264 5.74761 7.88786 5.69689 7.91913 5.66815C7.95041 5.63941 8.00027 5.62589 8.06705 5.62589H8.81508C8.88778 5.62589 8.93849 5.63941 8.96723 5.66815C8.99597 5.69689 9.00949 5.74761 9.00949 5.8203V9.41002C9.00949 9.47764 8.99512 9.52751 8.96723 9.55878C8.93849 9.58921 8.88778 9.60527 8.81508 9.60527H8.06705ZM4.95573 9.60527C4.88811 9.60527 4.83824 9.59006 4.80697 9.55878C4.77654 9.52751 4.76048 9.47764 4.76048 9.41087V5.8203C4.76048 5.74761 4.77654 5.69689 4.80697 5.66815C4.83824 5.63941 4.88811 5.62589 4.95573 5.62589H5.51612C5.6353 5.62589 5.70799 5.68252 5.73419 5.79663L5.83562 6.21671C6.0427 5.9885 6.2388 5.82621 6.42306 5.7307C6.60817 5.63434 6.80342 5.58701 7.01135 5.58701H7.12123C7.19307 5.58701 7.24548 5.60053 7.27591 5.62927C7.30718 5.65801 7.32324 5.70872 7.32324 5.78141V6.43478C7.32324 6.5024 7.30887 6.55227 7.28013 6.58355C7.25139 6.61397 7.20068 6.63003 7.12799 6.63003C7.08112 6.62923 7.03431 6.62641 6.98768 6.62158C6.91513 6.61588 6.84237 6.61335 6.76961 6.61397C6.65128 6.61397 6.50505 6.63088 6.33347 6.66469C6.16273 6.6985 6.01735 6.7416 5.89817 6.79316V9.41087C5.89817 9.47849 5.88295 9.52751 5.85506 9.55878C5.82632 9.59006 5.77561 9.60527 5.70292 9.60527H4.95573ZM0.290859 11.2095C0.22324 11.2095 0.174216 11.1952 0.142942 11.1673C0.111668 11.1385 0.0964542 11.087 0.0964542 11.0151V5.8203C0.0964542 5.74761 0.111668 5.69689 0.142942 5.66815C0.174216 5.63941 0.22324 5.62589 0.290859 5.62589H0.852097C0.97043 5.62589 1.04397 5.68252 1.07017 5.79663L1.12426 5.99949C1.28714 5.84415 1.47899 5.72238 1.68888 5.6411C1.90284 5.55407 2.13155 5.50901 2.36254 5.5084C2.8663 5.5084 3.26441 5.69266 3.5577 6.06119C3.85185 6.43056 3.99807 6.9284 3.99807 7.55726C3.99807 7.98833 3.92538 8.36446 3.78 8.6865C3.63462 9.00769 3.43768 9.25619 3.18834 9.43031C2.93699 9.60476 2.63718 9.69583 2.33126 9.69064C2.11826 9.69064 1.91625 9.65683 1.72354 9.58921C1.54359 9.52848 1.37712 9.43347 1.2333 9.30944V11.0151C1.2333 11.087 1.21893 11.1385 1.19104 11.1673C1.1623 11.1952 1.11074 11.2095 1.03889 11.2095H0.290859ZM1.99655 8.83441C2.28731 8.83441 2.50116 8.73552 2.63893 8.53858C2.7767 8.3408 2.84601 8.0289 2.84601 7.60375C2.84601 7.17268 2.77839 6.85825 2.64316 6.66131C2.50792 6.46352 2.29238 6.36547 1.99655 6.36547C1.72607 6.36547 1.4725 6.43563 1.2333 6.57509V8.62395C1.46151 8.76426 1.71593 8.83441 1.99655 8.83441V8.83441Z" fill="white"/>
</g>
<defs>
<clipPath id="clip0_29_17">
<rect width="20.2857" height="20.2857" fill="white"/>
</clipPath>
</defs>
</svg>
