<svg width="21" height="10" viewBox="0 0 21 10" fill="none" xmlns="http://www.w3.org/2000/svg">
<path d="M5.95217 8.99544H3.73088V5.82241H2.2889V8.99544H0.00845238L0 0.816914H2.2889V3.85977H3.73088V0.816914H5.95217V8.99544ZM16.1314 9.03432C18.422 9.03263 20.2857 7.13 20.2857 4.83856C20.2891 4.29186 20.1839 3.74993 19.9764 3.24415C19.7689 2.73837 19.4631 2.27878 19.0767 1.89201C18.6903 1.50523 18.231 1.19895 17.7255 0.990908C17.2199 0.782861 16.6781 0.677181 16.1314 0.679986C13.8433 0.678296 12.6743 2.36285 12.3853 3.04243C12.3878 2.02222 11.382 0.81776 10.2046 0.816069H6.41536V8.9929L9.9493 8.99375C11.3744 8.99375 12.3887 7.7597 12.3903 6.70062C12.7158 7.36666 13.8442 9.03516 16.1322 9.03347L16.1314 9.03432ZM9.65262 5.70746C9.97973 5.70746 10.2375 6.03034 10.2375 6.39802C10.2375 6.7657 9.97973 7.08858 9.65262 7.08858H8.52845V5.70746H9.65262ZM9.65685 2.63671C9.98395 2.63671 10.2417 2.95959 10.2417 3.32727C10.2417 3.6958 9.98395 4.01868 9.65685 4.01868H8.53268V2.63671H9.65685ZM11.1529 4.84025C11.4107 4.80728 11.8401 4.51314 11.9914 4.32465C11.9381 4.55794 11.9339 5.23244 11.9965 5.46572C11.824 5.20032 11.4149 4.87321 11.1529 4.84025ZM14.0521 4.84025C14.0521 4.56697 14.1059 4.29637 14.2105 4.04389C14.3151 3.79142 14.4684 3.56201 14.6616 3.36878C14.8548 3.17554 15.0842 3.02225 15.3367 2.91768C15.5892 2.8131 15.8598 2.75927 16.1331 2.75927C16.4063 2.75927 16.6769 2.8131 16.9294 2.91768C17.1819 3.02225 17.4113 3.17554 17.6045 3.36878C17.7978 3.56201 17.9511 3.79142 18.0556 4.04389C18.1602 4.29637 18.214 4.56697 18.214 4.84025C18.214 5.39227 17.9947 5.92168 17.6044 6.31202C17.2141 6.70236 16.6847 6.92165 16.1326 6.92165C15.5806 6.92165 15.0512 6.70236 14.6609 6.31202C14.2705 5.92168 14.0512 5.39227 14.0512 4.84025H14.0521ZM16.1331 6.47663C16.5671 6.47663 16.9833 6.30422 17.2902 5.99734C17.597 5.69046 17.7694 5.27424 17.7694 4.84025C17.7694 4.40625 17.597 3.99003 17.2902 3.68315C16.9833 3.37627 16.5671 3.20387 16.1331 3.20387C15.6991 3.20387 15.2828 3.37627 14.976 3.68315C14.6691 3.99003 14.4967 4.40625 14.4967 4.84025C14.4967 5.27424 14.6691 5.69046 14.976 5.99734C15.2828 6.30422 15.6991 6.47663 16.1331 6.47663Z" fill="white"/>
</svg>
