<svg width="11" height="20" viewBox="0 0 11 20" fill="none" xmlns="http://www.w3.org/2000/svg">
<path d="M4.54272 3.22371L6.2501 8.04749L6.58397 8.99078L6.58989 4.92518L6.59834 0.852822H10.2075L10.2143 10.0338C10.2168 15.0883 10.2117 19.2384 10.2016 19.2469C10.1914 19.2545 10.0249 19.2469 9.83307 19.2241C8.89505 19.1123 7.95346 19.0328 7.00997 18.9857C6.83057 18.9789 6.65133 18.9682 6.4724 18.9536C6.46986 18.9502 6.24165 18.3095 5.81649 17.1076V17.1042L4.0043 11.9812L3.71692 11.1749L3.71016 15.0511C3.70509 18.7406 3.70171 18.9477 3.66198 18.9477C3.52421 18.9477 2.33496 19.0238 1.9377 19.0626C1.67736 19.0855 1.15501 19.1387 0.77972 19.1852C0.402744 19.2283 0.0900063 19.257 0.0840896 19.2511C0.0764824 19.246 0.0714111 15.1018 0.0714111 10.0439V0.846905H0.0756374V0.845215H3.70002L3.72368 0.912834C3.7296 0.926358 3.77862 1.0616 3.85639 1.2822L4.39818 2.78504L4.54441 3.20427L4.54357 3.22371H4.54272Z" fill="white"/>
</svg>
